<?xml version="1.0" encoding="utf-8"?>
<svg version="1.0" xmlns="http://www.w3.org/2000/svg" width="418.000000pt" height="418.000000pt" viewBox="0 0 418.000000 418.000000" preserveAspectRatio="xMidYMid meet">
  <g transform="matrix(0.136895, 0, 0, -0.160928, -89.373901, 541.201721)" fill="#000000" stroke="none" style="">
    <path d="M840 2905 l0 -235 45 0 45 0 0 95 0 95 45 0 45 0 0 -95 0 -95 45 0 45 0 0 235 0 235 -45 0 -45 0 0 -95 0 -95 -45 0 -45 0 0 95 0 95 -45 0 -45 0 0 -235z"/>
    <path d="M1300 3090 l0 -50 95 0 95 0 0 -45 0 -45 -50 0 -50 0 0 -45 0 -45 50 0 50 0 0 -45 0 -45 -95 0 -95 0 0 -50 0 -50 95 0 95 0 0 50 0 50 45 0 45 0 0 45 0 45 -45 0 -45 0 0 45 0 45 45 0 45 0 0 45 0 45 -45 0 -45 0 0 50 0 50 -95 0 -95 0 0 -50z"/>
    <path d="M1760 2860 l0 -280 -90 0 -90 0 0 -45 0 -45 -95 0 -95 0 0 -95 0 -95 -90 0 -90 0 0 -90 0 -90 -95 0 -95 0 0 -95 0 -95 -45 0 -45 0 0 -45 0 -45 45 0 45 0 0 -40 0 -40 -45 0 -45 0 0 -145 0 -145 45 0 45 0 0 50 0 50 45 0 45 0 0 40 0 40 50 0 50 0 0 95 0 95 45 0 45 0 0 45 0 45 95 0 95 0 0 45 0 45 45 0 45 0 0 50 0 50 45 0 45 0 0 45 0 45 325 0 325 0 0 -45 0 -45 45 0 45 0 0 -50 0 -50 50 0 50 0 0 -45 0 -45 90 0 90 0 0 -45 0 -45 45 0 45 0 0 -45 0 -45 50 0 50 0 0 -95 0 -95 90 0 90 0 0 140 0 140 -45 0 -45 0 0 140 0 140 -45 0 -45 0 0 45 0 45 -50 0 -50 0 0 90 0 90 -90 0 -90 0 0 50 0 50 -140 0 -140 0 0 45 0 45 -45 0 -45 0 0 45 0 45 140 0 140 0 0 50 0 50 -95 0 -95 0 0 185 0 185 -45 0 -45 0 0 -235 0 -235 -95 0 -95 0 0 50 0 50 -90 0 -90 0 0 185 0 185 -50 0 -50 0 0 -280z"/>
    <path d="M2780 3090 l0 -50 -45 0 -45 0 0 -135 0 -135 45 0 45 0 0 -50 0 -50 50 0 50 0 0 50 0 50 45 0 45 0 0 135 0 135 -45 0 -45 0 0 50 0 50 -50 0 -50 0 0 -50z m100 -185 l0 -135 -50 0 -50 0 0 135 0 135 50 0 50 0 0 -135z"/>
    <path d="M3160 2955 l0 -185 45 0 45 0 0 -50 0 -50 90 0 90 0 0 50 0 50 50 0 50 0 0 185 0 185 -50 0 -50 0 0 -185 0 -185 -90 0 -90 0 0 185 0 185 -45 0 -45 0 0 -185z"/>
    <path d="M1390 1705 l0 -55 185 0 185 0 0 55 0 55 -185 0 -185 0 0 -55z"/>
    <path d="M2040 1705 l0 -55 235 0 235 0 0 55 0 55 -235 0 -235 0 0 -55z"/>
    <path d="M1580 1150 l0 -50 45 0 45 0 0 -50 0 -50 235 0 235 0 0 55 0 55 -235 0 -235 0 0 45 0 45 -45 0 -45 0 0 -50z"/>
  </g>
</svg>